<?xml version="1.0" encoding="UTF-8"?>
<svg id="Layer_2" data-name="Layer 2" xmlns="http://www.w3.org/2000/svg" viewBox="0 0 601 113.64">
  <defs>
    <style>
      .cls-1 {
        fill: #08a046;
      }

      .cls-1, .cls-2 {
        stroke-width: 0px;
      }

      .cls-2 {
        fill: #fff;
      }
    </style>
  </defs>
  <g id="Layer_1-2" data-name="Layer 1">
    <g>
      <path class="cls-2" d="M133.35,1.51c-11.39,0-21.8,4.64-30.96,13.79l-20.53,20.53s-.06.04-.08.07l-20.19,20.19s-.05.05-.07.08c0,0,0,0,0,0l-6.86,6.86s-.06.04-.08.07l-20.2,20.19c-.15.15-.2.36-.14.56.06.2.23.34.43.38,2.33.39,4.67.59,6.97.59,11.12,0,19.15-2.62,24.55-8.02l16.94-16.94s.02-.02.03-.03l9.43-9.43s.02-.02.03-.03l22.77-22.77s.04-.03.06-.05c5.4-5.4,11.42-8.14,17.88-8.14,13.1,0,23.76,10.66,23.76,23.76s-10.66,23.76-23.76,23.76c-6.98,0-12.55-2.41-18.05-7.83l-2.97-2.99s-.02-.02-.03-.03l-6.21-6.51s0,0-.01,0c0,0,0,0,0-.01-.01,0-.02-.02-.03-.03-.01-.01-.03-.02-.04-.03-.02-.01-.03-.02-.05-.03-.02,0-.03-.02-.05-.02-.02,0-.04-.01-.06-.02-.02,0-.03,0-.05-.01-.03,0-.05,0-.08,0,0,0-.01,0-.02,0,0,0,0,0,0,0-.15,0-.3.05-.41.16-.02.02-.03.04-.04.05l-13.39,13.39c-.1.1-.16.24-.16.39v49.25c0,.3.25.55.55.55h16.79c.3,0,.55-.25.55-.55v-35.05c5.38,4.86,13.15,7.22,23.73,7.22,0,0,.03,0,.03,0,.07,0,.13,0,.2,0,.05,0,.09,0,.14,0,.6,0,1.06-.02,1.5-.04.46-.02.9-.05,1.39-.09h.13c.07-.01.13-.02.19-.02,10.36-.88,19.97-5.58,27.05-13.25,7.12-7.71,11.05-17.74,11.05-28.24,0-22.97-18.69-41.65-41.65-41.65Z"/>
      <path class="cls-1" d="M82.97,72.37c-.21-.09-.44-.04-.6.12l-16.79,16.79c-.1.1-.16.24-.16.39v22.89c0,.3.25.55.55.55h16.79c.3,0,.55-.25.55-.55v-39.69c0-.22-.13-.42-.34-.51Z"/>
      <path class="cls-1" d="M38.3,66.99c-.06-.2-.23-.34-.44-.37-5.51-.89-10.56-3.72-14.23-7.98-3.71-4.31-5.75-9.8-5.75-15.48,0-13.1,10.66-23.76,23.76-23.76,6.46,0,12.48,2.74,17.88,8.14.02.02.04.04.06.05l8.88,8.88c.21.21.57.21.78,0l11.87-11.87c.21-.21.21-.56,0-.78l-8.52-8.52C63.46,6.15,53.04,1.51,41.65,1.51,18.69,1.51,0,20.19,0,43.16c0,8.11,2.33,15.97,6.75,22.73,4.3,6.58,10.35,11.8,17.47,15.09.07.03.15.05.23.05.14,0,.28-.06.39-.16l13.32-13.32c.15-.15.2-.36.13-.56Z"/>
      <path class="cls-2" d="M270.86,32.93c-1.98-2.71-4.79-5.03-8.42-6.94-3.63-1.91-7.8-2.86-12.5-2.86-5.36,0-10.22,1.3-14.59,3.91-4.37,2.61-7.82,6.26-10.35,10.96-2.53,4.7-3.8,10.09-3.8,16.19s1.27,11.55,3.8,16.35c2.53,4.81,5.95,8.55,10.24,11.23,4.29,2.68,9.05,4.02,14.26,4.02,4.77,0,9.03-.96,12.77-2.86,3.74-1.91,6.61-4.22,8.59-6.94v37.66h12.66V24.12h-12.66v8.81ZM268.27,65.36c-1.73,3.12-3.98,5.49-6.77,7.1-2.79,1.62-5.8,2.42-9.03,2.42s-6.15-.83-8.97-2.48c-2.83-1.65-5.1-4.06-6.83-7.21-1.73-3.16-2.59-6.83-2.59-11.01s.86-7.8,2.59-10.85c1.72-3.05,3.98-5.36,6.77-6.94,2.79-1.58,5.8-2.37,9.03-2.37s6.24.81,9.03,2.42c2.79,1.62,5.05,3.96,6.77,7.05,1.72,3.08,2.59,6.72,2.59,10.9s-.86,7.84-2.59,10.96Z"/>
      <path class="cls-2" d="M343.76,32.93c-2.13-2.79-4.97-5.12-8.53-6.99-3.56-1.87-7.73-2.81-12.5-2.81-5.29,0-10.11,1.3-14.48,3.91-4.37,2.61-7.82,6.26-10.35,10.96-2.53,4.7-3.8,10.09-3.8,16.19s1.27,11.55,3.8,16.35c2.53,4.81,5.96,8.55,10.3,11.23,4.33,2.68,9.1,4.02,14.32,4.02,4.7,0,8.88-.96,12.55-2.86,3.67-1.91,6.57-4.29,8.7-7.16v9.03h12.66V24.12h-12.66v8.81ZM341.17,65.36c-1.73,3.12-3.98,5.49-6.77,7.1-2.79,1.62-5.8,2.42-9.03,2.42s-6.15-.83-8.97-2.48c-2.83-1.65-5.1-4.06-6.83-7.21-1.73-3.16-2.59-6.83-2.59-11.01s.86-7.8,2.59-10.85c1.72-3.05,3.98-5.36,6.77-6.94,2.79-1.58,5.8-2.37,9.03-2.37s6.24.81,9.03,2.42c2.79,1.62,5.05,3.96,6.77,7.05,1.72,3.08,2.59,6.72,2.59,10.9s-.86,7.84-2.59,10.96Z"/>
      <path class="cls-2" d="M414.62,26.1c-3.78-1.98-8.06-2.97-12.83-2.97-3.6,0-6.99.7-10.19,2.09-3.19,1.4-5.82,3.34-7.87,5.84v-6.94h-12.55v60.68h12.55v-33.92c0-5.43,1.38-9.6,4.13-12.5,2.75-2.9,6.48-4.35,11.18-4.35s8.41,1.45,11.12,4.35c2.71,2.9,4.07,7.07,4.07,12.5v33.92h12.44v-35.79c0-5.51-1.06-10.2-3.19-14.09-2.13-3.89-5.08-6.83-8.86-8.81Z"/>
      <path class="cls-1" d="M486.36,32.93c-2.13-2.79-4.97-5.12-8.53-6.99-3.56-1.87-7.73-2.81-12.5-2.81-5.29,0-10.11,1.3-14.48,3.91-4.37,2.61-7.82,6.26-10.35,10.96-2.53,4.7-3.8,10.09-3.8,16.19s1.27,11.55,3.8,16.35c2.53,4.81,5.96,8.55,10.3,11.23,4.33,2.68,9.1,4.02,14.32,4.02,4.7,0,8.88-.96,12.55-2.86,3.67-1.91,6.57-4.29,8.7-7.16v9.03h12.66V24.12h-12.66v8.81ZM483.78,65.36c-1.73,3.12-3.98,5.49-6.77,7.1-2.79,1.62-5.8,2.42-9.03,2.42s-6.15-.83-8.97-2.48c-2.83-1.65-5.1-4.06-6.83-7.21-1.73-3.16-2.59-6.83-2.59-11.01s.86-7.8,2.59-10.85c1.72-3.05,3.98-5.36,6.77-6.94,2.79-1.58,5.8-2.37,9.03-2.37s6.24.81,9.03,2.42c2.79,1.62,5.05,3.96,6.77,7.05,1.72,3.08,2.59,6.72,2.59,10.9s-.86,7.84-2.59,10.96Z"/>
      <path class="cls-1" d="M561.96,27.03c-4.37-2.6-9.2-3.91-14.48-3.91-4.62,0-8.77.96-12.44,2.86-3.67,1.91-6.57,4.26-8.7,7.05v-8.92h-12.55v89.53h12.55v-37.66c2.27,2.79,5.21,5.12,8.81,6.99,3.6,1.87,7.71,2.81,12.33,2.81,5.29,0,10.11-1.34,14.48-4.02,4.37-2.68,7.8-6.42,10.3-11.23,2.5-4.81,3.74-10.26,3.74-16.35s-1.25-11.49-3.74-16.19c-2.5-4.7-5.93-8.35-10.3-10.96ZM560.64,65.19c-1.73,3.16-4,5.56-6.83,7.21-2.83,1.65-5.86,2.48-9.08,2.48s-6.15-.81-8.97-2.42c-2.83-1.61-5.1-3.98-6.83-7.1-1.73-3.12-2.59-6.77-2.59-10.96s.86-7.82,2.59-10.9c1.72-3.08,4-5.43,6.83-7.05,2.83-1.61,5.82-2.42,8.97-2.42s6.26.79,9.08,2.37c2.83,1.58,5.1,3.89,6.83,6.94,1.72,3.05,2.59,6.66,2.59,10.85s-.86,7.86-2.59,11.01Z"/>
      <path class="cls-1" d="M593.07,16.08c2.2,0,4.08-.77,5.62-2.31,1.54-1.54,2.31-3.45,2.31-5.73s-.77-4.18-2.31-5.73c-1.54-1.54-3.41-2.31-5.62-2.31s-4.18.77-5.73,2.31c-1.54,1.54-2.31,3.45-2.31,5.73s.77,4.18,2.31,5.73c1.54,1.54,3.45,2.31,5.73,2.31Z"/>
      <rect class="cls-1" x="586.68" y="24.12" width="12.55" height="60.68"/>
    </g>
  </g>
</svg>