<?xml version="1.0" encoding="UTF-8"?><svg id="Layer_2" xmlns="http://www.w3.org/2000/svg" viewBox="0 0 927.12 175.31"><defs><style>.cls-1{fill:#08a046;}.cls-1,.cls-2{stroke-width:0px;}.cls-2{fill:#141516;}</style></defs><g id="Layer_1-2"><path class="cls-2" d="M205.71,2.32c-17.57,0-33.64,7.16-47.75,21.27l-31.67,31.67s-.09.07-.13.11l-31.15,31.15s-.07.07-.1.12c0,0,0,0,0,0l-10.58,10.58s-.09.07-.13.1l-31.15,31.15c-.22.22-.3.56-.21.86.1.3.35.53.67.58,3.59.61,7.21.91,10.75.91,17.16,0,29.55-4.05,37.88-12.38l26.13-26.13s.03-.03.04-.05l14.55-14.55s.03-.03.05-.05l35.13-35.13s.06-.05.09-.08c8.33-8.33,17.61-12.55,27.58-12.55,20.21,0,36.65,16.44,36.65,36.65s-16.44,36.65-36.65,36.65c-10.77,0-19.36-3.72-27.84-12.07l-4.59-4.61s-.03-.03-.05-.05l-9.58-10.04s-.01,0-.02-.01c0,0,0-.01-.01-.02-.02-.01-.03-.03-.05-.04-.02-.02-.04-.04-.07-.05-.02-.02-.05-.03-.08-.04-.02-.01-.05-.03-.07-.04-.03-.01-.06-.02-.09-.03-.02,0-.05-.01-.07-.02-.04,0-.08-.01-.12-.01,0,0-.02,0-.03,0,0,0,0,0,0,0-.23,0-.46.08-.63.25-.03.03-.05.06-.07.08l-20.65,20.66c-.16.16-.25.38-.25.6v75.97c0,.47.38.85.85.85h25.9c.47,0,.85-.38.85-.85v-54.07c8.3,7.49,20.29,11.14,36.6,11.14,0,0,.04,0,.05,0,.1,0,.2,0,.31,0,.07,0,.15,0,.22,0,.92,0,1.64-.03,2.31-.06.71-.03,1.39-.08,2.15-.14l.21-.02c.1,0,.2-.01.3-.02,15.98-1.35,30.8-8.61,41.73-20.43,10.99-11.89,17.04-27.37,17.04-43.57,0-35.43-28.82-64.25-64.25-64.25Z"/><path class="cls-1" d="M127.99,111.65c-.32-.13-.68-.06-.92.18l-25.9,25.9c-.16.16-.25.37-.25.6v35.32c0,.47.38.85.85.85h25.9c.47,0,.85-.38.85-.85v-61.22c0-.34-.21-.65-.52-.78Z"/><path class="cls-1" d="M59.09,103.34c-.1-.3-.36-.53-.67-.58-8.5-1.37-16.29-5.74-21.95-12.31-5.72-6.64-8.87-15.12-8.87-23.87,0-20.21,16.44-36.65,36.65-36.65,9.97,0,19.25,4.22,27.58,12.55.03.03.06.06.09.08l13.7,13.7c.32.32.88.32,1.2,0l18.32-18.32c.33-.33.33-.87,0-1.2l-13.14-13.14c-14.12-14.12-30.18-21.27-47.75-21.27C28.82,2.32,0,31.15,0,66.58c0,12.51,3.6,24.64,10.42,35.07,6.64,10.16,15.96,18.21,26.96,23.28.11.05.23.08.36.08.22,0,.44-.09.6-.25l20.55-20.55c.23-.23.31-.56.21-.86Z"/><path class="cls-2" d="M417.84,50.79c-3.06-4.19-7.39-7.76-12.99-10.7-5.61-2.94-12.04-4.42-19.28-4.42-8.27,0-15.77,2.01-22.51,6.03-6.74,4.02-12.06,9.66-15.97,16.9-3.91,7.25-5.86,15.57-5.86,24.97s1.95,17.81,5.86,25.23c3.91,7.42,9.17,13.2,15.8,17.33,6.62,4.14,13.96,6.2,22,6.2,7.36,0,13.93-1.47,19.71-4.42,5.78-2.94,10.19-6.51,13.25-10.7v58.1h19.54V37.2h-19.54v13.59ZM413.85,100.82c-2.66,4.82-6.14,8.47-10.45,10.96-4.31,2.49-8.95,3.74-13.93,3.74s-9.49-1.27-13.84-3.82c-4.36-2.55-7.87-6.26-10.53-11.13-2.66-4.87-3.99-10.53-3.99-16.99s1.33-12.03,3.99-16.73c2.66-4.7,6.14-8.27,10.45-10.7,4.3-2.43,8.94-3.65,13.93-3.65s9.62,1.25,13.93,3.74c4.3,2.49,7.78,6.12,10.45,10.87,2.66,4.76,3.99,10.36,3.99,16.82s-1.33,12.09-3.99,16.9Z"/><path class="cls-2" d="M530.3,50.79c-3.29-4.3-7.67-7.9-13.17-10.79-5.49-2.89-11.92-4.33-19.28-4.33-8.15,0-15.6,2.01-22.34,6.03-6.74,4.02-12.06,9.66-15.97,16.9-3.91,7.25-5.86,15.57-5.86,24.97s1.95,17.81,5.86,25.23c3.91,7.42,9.2,13.2,15.88,17.33,6.68,4.14,14.04,6.2,22.08,6.2,7.25,0,13.7-1.47,19.37-4.42,5.66-2.94,10.13-6.63,13.42-11.04v13.93h19.54V37.2h-19.54v13.59ZM526.31,100.82c-2.66,4.82-6.14,8.47-10.45,10.96-4.31,2.49-8.95,3.74-13.93,3.74s-9.49-1.27-13.84-3.82c-4.36-2.55-7.87-6.26-10.53-11.13-2.66-4.87-3.99-10.53-3.99-16.99s1.33-12.03,3.99-16.73c2.66-4.7,6.14-8.27,10.45-10.7,4.3-2.43,8.95-3.65,13.93-3.65s9.62,1.25,13.93,3.74c4.3,2.49,7.79,6.12,10.45,10.87,2.66,4.76,3.99,10.36,3.99,16.82s-1.33,12.09-3.99,16.9Z"/><path class="cls-2" d="M639.61,40.26c-5.83-3.06-12.43-4.59-19.79-4.59-5.55,0-10.79,1.08-15.71,3.23-4.93,2.15-8.98,5.15-12.15,9v-10.7h-19.37v93.6h19.37v-52.32c0-8.38,2.12-14.81,6.37-19.28,4.25-4.47,9.99-6.71,17.24-6.71s12.97,2.24,17.16,6.71c4.19,4.47,6.29,10.9,6.29,19.28v52.32h19.2v-55.21c0-8.49-1.64-15.74-4.93-21.74-3.29-6-7.84-10.53-13.67-13.59Z"/><path class="cls-1" d="M750.28,50.79c-3.29-4.3-7.67-7.9-13.17-10.79-5.49-2.89-11.92-4.33-19.28-4.33-8.15,0-15.6,2.01-22.34,6.03-6.74,4.02-12.06,9.66-15.97,16.9-3.91,7.25-5.86,15.57-5.86,24.97s1.95,17.81,5.86,25.23c3.91,7.42,9.2,13.2,15.88,17.33,6.68,4.14,14.04,6.2,22.08,6.2,7.25,0,13.7-1.47,19.37-4.42,5.66-2.94,10.13-6.63,13.42-11.04v13.93h19.54V37.2h-19.54v13.59ZM746.29,100.82c-2.66,4.82-6.14,8.47-10.45,10.96-4.31,2.49-8.95,3.74-13.93,3.74s-9.49-1.27-13.84-3.82c-4.36-2.55-7.87-6.26-10.53-11.13-2.66-4.87-3.99-10.53-3.99-16.99s1.33-12.03,3.99-16.73c2.66-4.7,6.14-8.27,10.45-10.7,4.3-2.43,8.95-3.65,13.93-3.65s9.62,1.25,13.93,3.74c4.3,2.49,7.79,6.12,10.45,10.87,2.66,4.76,3.99,10.36,3.99,16.82s-1.33,12.09-3.99,16.9Z"/><path class="cls-1" d="M866.9,41.7c-6.74-4.02-14.19-6.03-22.34-6.03-7.13,0-13.53,1.47-19.2,4.42-5.66,2.95-10.14,6.57-13.42,10.87v-13.76h-19.37v138.11h19.37v-58.1c3.51,4.31,8.04,7.9,13.59,10.79,5.55,2.89,11.89,4.33,19.03,4.33,8.15,0,15.6-2.07,22.34-6.2,6.74-4.13,12.03-9.91,15.88-17.33,3.85-7.41,5.78-15.82,5.78-25.23s-1.93-17.72-5.78-24.97c-3.85-7.25-9.15-12.88-15.88-16.9ZM864.86,100.57c-2.66,4.87-6.18,8.58-10.53,11.13-4.36,2.55-9.03,3.82-14.01,3.82s-9.49-1.24-13.84-3.74c-4.36-2.49-7.87-6.14-10.53-10.96-2.66-4.81-3.99-10.45-3.99-16.9s1.33-12.06,3.99-16.82c2.66-4.76,6.17-8.38,10.53-10.87,4.36-2.49,8.97-3.74,13.84-3.74s9.66,1.22,14.01,3.65c4.36,2.44,7.87,6,10.53,10.7,2.66,4.7,3.99,10.28,3.99,16.73s-1.33,12.12-3.99,16.99Z"/><path class="cls-1" d="M914.89,24.8c3.4,0,6.29-1.19,8.66-3.57,2.38-2.38,3.57-5.32,3.57-8.83s-1.19-6.46-3.57-8.83c-2.38-2.38-5.27-3.57-8.66-3.57s-6.46,1.19-8.83,3.57c-2.38,2.38-3.57,5.32-3.57,8.83s1.19,6.46,3.57,8.83c2.38,2.38,5.32,3.57,8.83,3.57Z"/><rect class="cls-1" x="905.04" y="37.2" width="19.37" height="93.6"/></g></svg>